<svg xmlns="http://www.w3.org/2000/svg" width="149" height="48" viewBox="0 0 149 48">
    <g fill="none" fill-rule="evenodd">
        <path fill="#FFF" fill-opacity="0" d="M0 0H173.542V48H0z" transform="translate(.5)"/>
        <path fill="#2550AA" d="M8.702 15.004L22.89 29.191l-7.187 7.17L1.51 22.176l7.192-7.173zm122.387 3.88c1.428 0 2.637.506 3.581 1.495v-1.187h3.142v10.853c0 1.934-.637 3.472-1.911 4.592-1.253 1.143-2.878 1.714-4.834 1.714-2.087 0-3.976-.593-5.624-1.802l1.318-2.548c1.384.944 2.79 1.406 4.174 1.406 2.285 0 3.582-1.318 3.582-3.098v-.461c-.901.944-2.088 1.406-3.56 1.406-1.78 0-3.207-.571-4.328-1.736-1.12-1.164-1.67-2.636-1.67-4.416 0-1.823.594-3.317 1.758-4.482 1.165-1.164 2.637-1.735 4.372-1.735zm-71.295 0c1.45 0 2.68.528 3.713 1.583v-1.275h3.252v12.04h-3.252v-1.23c-1.033 1.032-2.263 1.537-3.713 1.537-1.714 0-3.142-.615-4.262-1.823-1.12-1.23-1.67-2.746-1.67-4.57 0-1.801.571-3.295 1.692-4.482 1.12-1.186 2.548-1.78 4.24-1.78zm38.791-3.888v16.236h-3.34v-1.296c-.944 1.076-2.13 1.603-3.58 1.603-1.692 0-3.098-.593-4.24-1.801-1.12-1.208-1.692-2.702-1.692-4.526 0-1.801.571-3.295 1.692-4.504 1.142-1.208 2.548-1.823 4.24-1.823 1.362 0 2.526.483 3.471 1.472v-5.361h3.45zm-55.045 0v12.765h8.085v3.47H39.893V14.997h3.647zm34.331 3.867c1.297 0 2.417.44 3.318 1.296.9.857 1.362 2.11 1.362 3.713v7.36h-3.45v-6.46c0-1.757-.922-2.746-2.35-2.746-1.56 0-2.592 1.143-2.592 2.835v6.37h-3.45V19.193h3.362v1.67c.637-1.142 2.065-2 3.8-2zm28.18.33v12.039h-3.45v-12.04h3.45zm11.047-.33c1.296 0 2.417.44 3.318 1.296.9.857 1.362 2.11 1.362 3.713v7.36h-3.45v-6.46c0-1.757-.922-2.746-2.35-2.746-1.56 0-2.593 1.143-2.593 2.835v6.37h-3.449V19.193h3.361v1.67c.638-1.142 2.066-2 3.801-2zm28.158.33v12.039h-3.45v-12.04h3.45zm-122.36-4.195l7.14 7.145-7.146 7.048.007-14.193zm37.491 7.028c-.9 0-1.626.308-2.219.923-.571.615-.857 1.362-.857 2.241 0 .9.286 1.648.857 2.285.593.615 1.318.923 2.22.923.9 0 1.625-.308 2.218-.945s.901-1.384.901-2.263-.308-1.626-.9-2.24c-.594-.616-1.319-.924-2.22-.924zm31.849 0c-.9 0-1.626.308-2.219.923-.571.615-.857 1.362-.857 2.241 0 .9.286 1.67.857 2.285.593.615 1.318.923 2.219.923.9 0 1.626-.308 2.197-.923.593-.615.879-1.384.879-2.285 0-.879-.286-1.626-.879-2.24-.571-.616-1.296-.924-2.197-.924zm39.27.022c-.878 0-1.603.286-2.196.88-.593.57-.88 1.295-.88 2.196 0 .9.287 1.648.88 2.241.593.593 1.318.9 2.197.9.878 0 1.604-.285 2.175-.878.593-.593.879-1.362.879-2.263 0-1.78-1.297-3.076-3.054-3.076zm-27.146-8.172c1.142 0 2.043.878 2.043 2.043 0 1.164-.901 2.043-2.043 2.043-1.165 0-2.066-.879-2.066-2.043 0-1.165.901-2.043 2.066-2.043zm39.204 0c1.143 0 2.044.878 2.044 2.043 0 1.164-.901 2.043-2.044 2.043-1.164 0-2.065-.879-2.065-2.043 0-1.165.9-2.043 2.065-2.043z" transform="translate(.5)"/>
    </g>
</svg>
